<svg width="22" height="12" viewBox="0 0 22 12" fill="none" xmlns="http://www.w3.org/2000/svg">
<path d="M21.0808 0.407959H19.8568C19.6888 0.407959 19.5688 0.551959 19.5688 0.695959V4.89596L16.3768 1.53596C16.1368 1.27196 15.7288 1.46396 15.7288 1.84796V4.94396H6.27281V1.87196C6.27281 1.48796 5.86481 1.29596 5.62481 1.55996L2.43281 4.91996V0.695959C2.43281 0.527959 2.28881 0.407959 2.14481 0.407959H0.920812C0.752812 0.407959 0.632812 0.551959 0.632812 0.695959V11.304C0.632812 11.472 0.776812 11.592 0.920812 11.592H2.14481C2.31281 11.592 2.43281 11.448 2.43281 11.304V7.10396L5.62481 10.464C5.86481 10.728 6.27281 10.536 6.27281 10.152V7.05596H15.7048V10.128C15.7048 10.512 16.1128 10.704 16.3528 10.44L19.5448 7.07996V11.28C19.5448 11.448 19.6888 11.568 19.8328 11.568H21.0808C21.2488 11.568 21.3688 11.424 21.3688 11.28V0.695959C21.3688 0.527959 21.2488 0.407959 21.0808 0.407959Z" fill="#00AAFF"/>
</svg>
