<svg width="14" height="14" viewBox="0 0 14 14" fill="none" xmlns="http://www.w3.org/2000/svg">
<g clipPath="url(#clip0_79_1780)">
<path d="M1.16797 6.99935H12.8346M1.16797 6.99935C1.16797 10.221 3.77964 12.8327 7.0013 12.8327M1.16797 6.99935C1.16797 3.77769 3.77964 1.16602 7.0013 1.16602M12.8346 6.99935C12.8346 10.221 10.223 12.8327 7.0013 12.8327M12.8346 6.99935C12.8346 3.77769 10.223 1.16602 7.0013 1.16602M7.0013 1.16602C8.46038 2.76339 9.28957 4.83637 9.33464 6.99935C9.28957 9.16233 8.46038 11.2353 7.0013 12.8327M7.0013 1.16602C5.54222 2.76339 4.71303 4.83637 4.66797 6.99935C4.71303 9.16233 5.54222 11.2353 7.0013 12.8327" stroke="white" stroke-linecap="round" stroke-linejoin="round"/>
</g>
<defs>
<clipPath id="clip0_79_1780">
<rect width="14" height="14" fill="white"/>
</clipPath>
</defs>
</svg>
